<?xml version="1.0" standalone="no"?>
<!DOCTYPE svg PUBLIC "-//W3C//DTD SVG 20010904//EN"
 "http://www.w3.org/TR/2001/REC-SVG-20010904/DTD/svg10.dtd">
<svg version="1.0" xmlns="http://www.w3.org/2000/svg"
 width="626.000000pt" height="626.000000pt" viewBox="0 0 626.000000 626.000000"
 preserveAspectRatio="xMidYMid meet">

<g transform="translate(0.000000,626.000000) scale(0.100000,-0.100000)"
fill="#000000" stroke="none">
<path d="M3295 5743 c-39 -21 -322 -231 -374 -278 -31 -28 -41 -46 -47 -81 -6
-43 -16 -55 -29 -34 -11 18 -25 11 -25 -13 0 -24 25 -67 47 -80 23 -14 14 -24
-17 -19 -16 2 -30 1 -30 -2 0 -31 86 -127 139 -155 20 -11 21 -10 21 33 0 36
6 52 29 78 16 18 33 30 37 25 4 -4 2 -13 -4 -19 -7 -7 -12 -16 -12 -21 0 -5
19 8 42 27 43 38 66 44 86 24 14 -14 72 2 156 44 l59 30 18 -23 c10 -13 19
-29 19 -34 0 -23 63 -85 115 -115 47 -27 55 -36 61 -68 12 -73 14 -76 33 -58
11 12 16 35 16 74 1 61 27 128 57 146 14 8 23 6 40 -12 20 -20 23 -33 23 -106
0 -92 -16 -126 -61 -126 -27 0 -42 -19 -24 -30 7 -5 15 -33 18 -62 6 -76 -20
-122 -137 -241 -111 -113 -138 -133 -203 -142 -55 -8 -66 -29 -13 -23 67 8 32
-24 -40 -36 -22 -4 -82 -20 -133 -37 -51 -16 -103 -29 -117 -29 -35 0 -100
-62 -120 -114 -9 -23 -24 -96 -34 -163 l-17 -121 -50 -59 c-28 -32 -77 -94
-109 -138 -32 -44 -84 -108 -116 -142 -55 -57 -71 -83 -50 -83 4 0 53 -42 107
-93 54 -52 116 -108 137 -126 20 -18 37 -40 37 -48 0 -8 5 -11 12 -7 8 5 9 2
5 -9 -13 -34 16 -15 90 58 42 41 80 75 85 75 4 0 9 -17 10 -37 1 -21 2 -49 3
-63 2 -29 -7 -30 125 10 58 17 116 34 130 38 23 7 26 14 32 77 72 692 81 752
118 825 l21 41 31 -30 31 -30 -16 -78 c-9 -43 -35 -184 -58 -313 -22 -129 -51
-291 -63 -360 -13 -69 -20 -128 -17 -132 3 -3 53 -20 111 -38 58 -17 114 -35
126 -40 21 -8 21 -8 28 308 3 175 9 396 13 493 l6 177 45 47 44 47 49 -48 c27
-27 49 -55 49 -64 0 -9 -15 -79 -34 -156 -47 -191 -70 -312 -106 -569 -16
-121 -35 -227 -40 -236 -11 -21 19 -31 72 -23 27 5 50 0 90 -19 63 -29 96 -58
113 -101 13 -33 9 -120 -5 -111 -12 7 -52 -37 -42 -44 5 -3 12 -13 16 -21 3
-9 5 -6 2 7 -3 16 5 29 29 48 19 14 37 25 42 25 16 -1 44 -28 34 -34 -5 -3
-17 1 -25 10 -9 8 -16 11 -16 5 0 -5 -9 -12 -19 -16 -11 -3 -24 -20 -30 -37
-14 -40 -14 -61 0 -52 7 4 10 2 8 -5 -8 -24 -24 -16 -35 18 l-11 34 -7 -43
c-4 -23 -3 -47 2 -54 15 -18 25 -69 12 -61 -5 3 -10 -1 -10 -9 0 -9 5 -16 10
-16 6 0 10 -7 10 -16 0 -8 -4 -12 -10 -9 -12 7 -14 -8 -3 -19 4 -4 8 -26 8
-49 3 -239 6 -350 10 -346 8 9 11 487 3 482 -5 -2 -8 10 -8 26 0 17 -4 31 -10
31 -5 0 -10 5 -10 10 0 12 49 -21 50 -33 0 -5 -4 -5 -10 -2 -15 9 -12 -11 3
-24 17 -13 14 -314 -4 -458 -6 -51 -9 -99 -6 -108 4 -8 3 -15 -2 -15 -4 0 -13
37 -18 83 -6 45 -9 57 -6 27 5 -63 14 -484 14 -699 1 -79 4 -139 7 -134 4 6 8
-26 8 -71 2 -106 9 -168 23 -194 15 -28 14 -42 -3 -42 -15 0 -29 27 -21 41 3
5 2 17 -3 26 -12 22 -20 176 -28 528 -15 663 -19 1016 -10 1025 16 16 -1 22
-24 10 -25 -13 -39 -5 -22 12 7 7 12 18 12 25 0 8 7 30 16 51 18 42 28 158 15
166 -5 4 -12 -18 -16 -46 -16 -124 -44 -208 -68 -208 -39 0 -147 110 -147 149
0 15 -19 17 -172 15 -127 -1 -186 3 -221 13 -54 17 -52 24 9 41 42 12 72 37
60 49 -4 4 -15 2 -25 -4 -9 -6 -45 -18 -79 -27 -58 -15 -63 -14 -112 6 -62 26
-56 36 41 73 38 15 79 35 91 46 22 17 22 18 3 18 -11 0 -28 -6 -38 -14 -11 -7
-36 -16 -57 -20 -21 -4 -59 -20 -84 -36 l-46 -29 -65 31 c-37 18 -62 36 -58
42 3 6 1 7 -6 3 -6 -4 -23 0 -38 9 -18 12 -28 14 -32 6 -5 -7 -39 2 -107 28
-226 88 -336 104 -392 56 -44 -37 -219 -304 -302 -460 -29 -55 -69 -129 -88
-165 -19 -36 -56 -105 -82 -155 -26 -49 -57 -106 -68 -125 -12 -19 -29 -50
-38 -67 -16 -32 -34 -44 -34 -23 0 15 23 53 39 66 11 9 11 13 1 19 -7 4 -16 2
-21 -6 -4 -7 -11 -11 -14 -7 -3 3 2 13 11 23 14 13 17 34 16 97 -1 68 2 79 15
74 12 -5 14 2 11 39 -2 25 0 45 4 45 5 0 8 -20 8 -44 0 -25 5 -48 10 -51 8 -5
7 -11 -1 -21 -9 -11 -8 -18 5 -33 12 -13 14 -20 5 -23 -7 -2 -10 -11 -7 -18 3
-11 8 -9 17 7 9 18 9 27 -1 42 -9 15 -9 23 1 35 8 9 9 16 5 16 -5 0 -8 20 -6
45 5 60 29 61 33 1 3 -26 0 -42 -6 -40 -5 2 -11 -10 -12 -28 l-3 -33 20 30
c14 21 18 39 14 61 -4 21 -1 34 11 44 14 12 15 10 5 -15 -6 -15 -9 -30 -6 -32
10 -10 36 58 36 92 0 22 4 34 12 33 13 -3 78 86 78 106 -1 6 -6 5 -13 -4 -7
-8 -25 -16 -42 -17 l-30 -1 28 14 c15 8 27 18 27 22 0 4 10 13 21 21 19 11 21
11 16 -3 -10 -26 9 -18 21 9 15 33 15 38 0 29 -8 -5 -9 -2 -5 10 4 10 7 21 7
24 0 4 4 0 10 -8 5 -8 12 -11 16 -7 4 3 1 13 -6 22 -16 19 2 45 31 45 11 0 19
5 19 11 0 7 -9 9 -22 6 -13 -3 -93 -9 -178 -12 -221 -10 -223 -11 -216 -190 2
-55 7 -183 11 -285 3 -102 11 -197 17 -213 6 -15 8 -43 5 -62 -4 -25 -2 -33 5
-29 8 5 9 1 4 -12 -5 -10 -10 -43 -13 -72 -3 -38 -18 -79 -55 -150 -133 -256
-246 -377 -403 -435 -157 -58 -176 -60 -407 -61 l-217 -1 -40 -40 c-23 -21
-41 -42 -41 -45 0 -14 142 -112 230 -159 183 -97 418 -185 471 -177 22 3 42 1
55 -8 23 -16 263 -101 269 -95 2 3 29 69 59 148 52 131 56 149 56 224 0 61 5
89 18 109 21 32 70 96 95 123 10 11 48 64 83 118 36 53 67 97 70 97 2 0 4 -9
4 -21 0 -11 -4 -17 -10 -14 -5 3 -10 -1 -10 -10 0 -9 5 -13 10 -10 6 3 10 2
10 -4 0 -16 -41 -81 -51 -81 -5 0 -9 -5 -9 -11 0 -6 7 -9 15 -5 12 4 15 -3 15
-29 0 -19 -4 -35 -10 -35 -5 0 -10 11 -10 24 0 14 -5 28 -10 31 -6 4 -10 -8
-10 -29 0 -19 -4 -37 -9 -40 -16 -10 -18 18 -4 51 7 18 11 33 8 33 -2 0 9 14
26 31 26 26 31 49 12 49 -4 0 -4 -3 -1 -6 3 -3 -4 -15 -16 -28 -43 -46 -55
-66 -50 -83 4 -12 3 -14 -3 -6 -6 9 -14 4 -27 -17 -9 -17 -13 -30 -7 -30 5 0
15 8 20 18 9 15 10 15 11 1 0 -24 -24 -41 -37 -28 -7 7 -13 7 -17 1 -6 -11 73
-67 82 -58 3 3 0 6 -6 6 -7 0 -12 5 -12 10 0 6 18 10 40 10 22 0 40 -4 40 -10
0 -5 -8 -10 -17 -10 -15 0 -16 -2 -3 -10 31 -20 41 -12 34 30 -4 26 -3 40 4
40 6 0 12 -17 14 -37 2 -20 8 -38 14 -40 8 -3 11 33 10 126 0 72 -4 131 -8
131 -5 0 -8 -22 -8 -50 0 -27 -4 -50 -10 -50 -11 0 -13 37 -4 92 5 25 11 35
20 31 16 -6 18 21 3 52 -9 19 -9 18 -5 -2 5 -27 -9 -40 -18 -18 -5 14 32 100
40 93 1 -2 6 -99 10 -216 l7 -213 -89 6 c-57 5 -93 12 -100 21 -6 8 -18 14
-27 14 -8 0 -17 6 -20 13 -3 9 -7 9 -20 -2 -19 -15 -22 -31 -8 -31 5 0 12 8
14 18 4 16 5 16 6 0 1 -12 9 -18 24 -18 22 0 25 -7 46 -132 12 -73 24 -143 26
-155 5 -24 43 -36 110 -35 l40 0 -3 -167 -4 -167 27 -12 c14 -7 41 -12 60 -12
19 0 36 -4 39 -9 9 -14 -104 -161 -176 -231 -40 -38 -94 -77 -148 -105 -185
-96 -236 -142 -255 -232 l-6 -31 57 -8 c192 -24 671 42 729 100 9 8 32 18 53
21 64 9 253 49 262 55 5 3 -5 75 -21 160 -26 128 -37 164 -64 205 -53 81 -65
111 -53 123 7 7 14 114 20 284 5 150 11 279 14 286 4 15 38 13 279 -17 247
-31 584 -71 645 -77 30 -3 105 -11 165 -19 61 -8 119 -15 130 -14 11 0 40 -3
64 -7 41 -7 43 -6 37 15 -3 11 -9 30 -12 41 -4 16 -14 20 -45 20 -32 0 -39 3
-39 20 0 17 7 20 43 20 l43 0 -6 42 c-4 28 -10 42 -19 40 -10 -2 -12 14 -6 79
8 92 14 351 8 332 -3 -7 -11 -13 -19 -13 -8 0 -14 -6 -14 -14 0 -7 -9 -16 -20
-19 -15 -4 -20 0 -20 14 0 18 -11 19 -253 19 -275 0 -466 14 -482 34 -6 7 -20
16 -33 20 -12 4 -22 11 -22 16 0 9 23 4 45 -9 12 -7 -4 -7 439 -15 203 -4 373
-9 379 -13 5 -3 8 0 5 8 -2 7 -15 16 -29 20 -16 5 -18 7 -6 8 11 1 17 10 18
29 7 142 6 212 -2 212 -5 0 -9 -9 -9 -20 0 -11 -4 -20 -10 -20 -5 0 -7 7 -4
15 6 14 -32 15 -332 10 -187 -3 -356 -8 -376 -11 -38 -6 -49 -18 -25 -27 9 -4
9 -6 0 -6 -6 -1 -15 4 -18 9 -3 6 -27 10 -53 9 -32 0 -41 -3 -28 -8 11 -4 -20
-6 -70 -4 -64 3 -85 1 -74 -6 12 -8 6 -11 -26 -11 -28 0 -49 -7 -69 -24 -16
-14 -35 -22 -46 -19 -14 4 -19 0 -19 -16 0 -11 -4 -21 -10 -21 -5 0 -7 -13 -3
-30 3 -17 1 -30 -4 -30 -6 0 -14 -10 -20 -22 -9 -20 -10 -18 -17 21 -5 36 -3
47 16 71 13 15 34 42 47 59 17 23 31 31 55 31 17 0 101 9 186 20 85 11 209 23
275 26 277 13 657 25 661 21 3 -3 7 -157 10 -344 5 -377 17 -553 39 -606 18
-44 29 -51 54 -35 13 8 24 9 30 3 6 -6 23 -86 38 -180 27 -157 31 -171 53
-182 31 -16 106 -17 147 -2 l30 10 7 122 c10 170 13 186 45 198 79 31 673 221
676 217 3 -3 12 -45 20 -94 9 -49 20 -93 25 -98 16 -16 94 -25 132 -14 41 12
47 29 49 127 0 31 4 78 7 105 7 47 9 50 42 59 19 4 41 16 48 25 15 19 17 142
2 142 -8 0 -9 208 -4 670 5 506 4 670 -4 670 -14 0 -13 23 -16 -290 -6 -640
-9 -760 -16 -643 -3 62 -9 115 -13 119 -4 4 -7 -3 -7 -16 0 -16 -3 -21 -10
-14 -6 6 -7 31 -1 69 l9 60 2 -45 c2 -29 6 -8 11 55 11 138 9 668 -2 686 -6
10 -9 3 -9 -23 0 -27 -4 -38 -15 -38 -8 0 -12 6 -9 14 3 9 -3 17 -15 21 -23 7
-29 25 -8 25 6 0 4 5 -6 11 -10 6 -172 12 -420 15 -221 2 -414 7 -429 9 -16 2
-28 0 -28 -5 0 -5 -7 -7 -15 -4 -8 4 -15 1 -15 -5 0 -6 -6 -11 -14 -11 -8 0
-16 -5 -18 -12 -3 -8 -12 -5 -27 9 -20 19 -21 24 -10 45 17 29 20 60 5 55 -6
-2 -10 -13 -8 -23 2 -17 1 -17 -13 2 -10 14 -23 20 -36 17 -31 -9 -21 -29 13
-24 4 0 6 -12 5 -27 -2 -25 -6 -28 -42 -29 -21 0 -41 -5 -43 -11 -2 -6 -10 -8
-18 -5 -8 3 -14 0 -14 -5 0 -6 8 -12 18 -14 9 -3 -2 -6 -25 -9 -42 -4 -60 5
-25 14 13 4 11 5 -5 6 -13 0 -23 6 -23 11 0 6 -7 10 -15 10 -8 0 -15 5 -15 10
0 16 21 12 37 -7 8 -10 11 -12 7 -4 -5 11 0 12 29 7 38 -7 87 9 87 29 0 16
-43 24 -90 18 -65 -8 -7 16 82 34 106 23 655 27 650 6 -1 -7 2 -13 7 -13 15 0
40 152 56 335 13 145 16 191 26 375 13 237 14 225 -7 268 -9 19 -20 65 -25
102 -4 36 -14 86 -22 111 -8 24 -27 85 -42 136 -17 55 -37 101 -50 113 -13 12
-49 27 -82 35 -67 16 -423 83 -465 88 -15 1 -35 10 -45 19 -33 29 -182 110
-191 104 -5 -3 -6 -23 -2 -47 6 -31 -1 -86 -28 -218 -19 -97 -39 -180 -43
-185 -4 -5 -36 17 -71 48 -35 32 -84 72 -110 89 -27 16 -48 33 -48 35 0 3 21
26 48 51 113 111 205 232 188 248 -5 4 -11 2 -13 -5 -8 -22 -101 -131 -184
-216 l-77 -79 -29 22 c-73 54 -76 39 29 150 116 122 133 153 133 246 1 58 4
70 18 73 10 2 17 -3 17 -12 0 -9 6 -16 13 -16 12 0 48 121 83 275 33 146 3
298 -77 389 -48 54 -85 76 -129 76 -21 0 -38 8 -53 25 -49 56 -224 85 -292 48z
m253 -1280 c2 -1 -16 -26 -40 -55 -24 -30 -53 -68 -66 -84 l-22 -29 4 30 c3
17 6 62 7 100 2 43 8 77 17 87 13 16 17 15 56 -15 22 -17 42 -33 44 -34z m532
-1453 c0 -5 -4 -10 -9 -10 -6 0 -13 5 -16 10 -3 6 1 10 9 10 9 0 16 -4 16 -10z
m-2063 -26 c-3 -3 -12 -4 -19 -1 -8 3 -5 6 6 6 11 1 17 -2 13 -5z m-285 -29
c-2 -15 0 -25 7 -25 6 0 11 -7 11 -15 0 -8 -4 -15 -10 -15 -5 0 -10 7 -10 15
0 24 -40 18 -50 -7 -8 -21 -9 -21 -9 -3 -1 17 43 71 60 74 3 1 4 -10 1 -24z
m133 15 c-22 -4 -47 -4 -55 1 -10 5 5 8 40 8 55 -1 55 -1 15 -9z m-44 -50 c11
0 19 -4 19 -10 0 -12 -49 -13 -67 -2 -6 4 -15 20 -18 35 l-8 28 28 -25 c15
-14 36 -26 46 -26z m2819 40 c0 -6 -33 -11 -77 -12 -221 -6 -246 -4 -228 14
10 10 305 8 305 -2z m290 4 c-60 -8 -130 -8 -130 -1 0 4 35 6 78 6 42 -1 66
-3 52 -5z m214 -33 c3 -5 -1 -11 -9 -15 -9 -3 -15 0 -15 9 0 16 16 20 24 6z
m-3196 -26 c0 -14 -4 -25 -8 -25 -11 0 -21 30 -14 41 10 17 22 9 22 -16z
m2227 5 c3 -5 1 -10 -4 -10 -6 0 -11 5 -11 10 0 6 2 10 4 10 3 0 8 -4 11 -10z
m-2458 -6 c-3 -3 -12 -4 -19 -1 -8 3 -5 6 6 6 11 1 17 -2 13 -5z m2283 -21 c0
-5 -5 -15 -10 -23 -8 -12 -10 -11 -10 8 0 12 5 22 10 22 6 0 10 -3 10 -7z
m1230 -274 c0 -225 -2 -269 -14 -269 -12 0 -14 40 -10 253 2 138 4 262 4 275
0 13 4 20 10 17 6 -4 10 -107 10 -276z m-3530 171 c0 -22 -4 -40 -10 -40 -5 0
-10 18 -10 40 0 22 5 40 10 40 6 0 10 -18 10 -40z m160 30 c0 -5 7 -10 15 -10
24 0 17 -34 -10 -47 -24 -11 -25 -10 -25 28 0 21 5 39 10 39 6 0 10 -4 10 -10z
m70 -49 c-6 -12 -16 -21 -23 -21 -8 0 -9 2 -1 8 6 4 15 18 19 32 5 14 10 20
12 13 2 -7 -1 -21 -7 -32z m2069 -86 c0 -5 -4 -3 -9 5 -5 8 -9 22 -9 30 0 16
17 -16 18 -35z m-2152 -7 c-3 -7 -5 -2 -5 12 0 14 2 19 5 13 2 -7 2 -19 0 -25z
m-147 -23 c0 -8 -4 -15 -10 -15 -5 0 -10 7 -10 15 0 8 5 15 10 15 6 0 10 -7
10 -15z m2295 -373 c-14 -15 -16 20 -9 155 l9 148 3 -149 c1 -82 0 -151 -3
-154z m-2290 78 c3 -5 1 -10 -4 -10 -6 0 -11 5 -11 10 0 6 2 10 4 10 3 0 8 -4
11 -10z m3495 -130 c0 -22 -4 -40 -10 -40 -5 0 -10 18 -10 40 0 22 5 40 10 40
6 0 10 -18 10 -40z m-3483 -52 c-3 -8 -6 -5 -6 6 -1 11 2 17 5 13 3 -3 4 -12
1 -19z m2218 -3 c-5 18 -4 18 9 5 11 -11 13 -23 8 -45 -13 -47 -36 -38 -40 15
-3 43 -2 44 13 25 l17 -20 -7 20z m-415 -26 c0 -4 -38 -9 -85 -11 -46 -2 -81
0 -77 4 13 13 162 19 162 7z m-380 -9 c-14 -4 -32 -8 -40 -9 -13 -1 -13 0 0 9
8 5 26 9 40 9 l25 -1 -25 -8z m74 1 c3 -5 -1 -12 -10 -15 -8 -3 -13 -2 -9 3 3
5 -1 12 -7 14 -8 4 -7 6 4 6 9 1 19 -3 22 -8z m66 -1 c0 -5 -5 -10 -11 -10 -5
0 -7 5 -4 10 3 6 8 10 11 10 2 0 4 -4 4 -10z m455 -10 c-28 -12 -55 -12 -55 0
0 6 17 10 38 9 30 0 33 -2 17 -9z m-574 -18 c-7 -2 -18 1 -23 6 -8 8 -4 9 13
5 13 -4 18 -8 10 -11z m-144 2 c-3 -3 -12 -4 -19 -1 -8 3 -5 6 6 6 11 1 17 -2
13 -5z m90 0 c-3 -3 -12 -4 -19 -1 -8 3 -5 6 6 6 11 1 17 -2 13 -5z m206 -1
c-7 -2 -19 -2 -25 0 -7 3 -2 5 12 5 14 0 19 -2 13 -5z m110 0 c-13 -2 -33 -2
-45 0 -13 2 -3 4 22 4 25 0 35 -2 23 -4z m-560 -30 c-13 -2 -35 -2 -50 0 -16
2 -5 4 22 4 28 0 40 -2 28 -4z m-133 -27 c0 -3 -4 -8 -10 -11 -5 -3 -10 -1
-10 4 0 6 5 11 10 11 6 0 10 -2 10 -4z m1205 -16 c3 -5 1 -10 -4 -10 -6 0 -11
5 -11 10 0 6 2 10 4 10 3 0 8 -4 11 -10z m-1072 -7 c-13 -2 -33 -2 -45 0 -13
2 -3 4 22 4 25 0 35 -2 23 -4z m848 -49 c6 -8 4 -14 -7 -18 -23 -9 -25 -4 -17
35 5 25 8 29 11 14 2 -11 8 -25 13 -31z m81 -7 c-9 -36 -28 -47 -74 -45 l-43
1 45 6 45 6 3 45 c3 40 5 43 17 27 7 -10 10 -28 7 -40z m1425 -39 c-2 -18 -4
-4 -4 32 0 36 2 50 4 33 2 -18 2 -48 0 -65z m-2580 -15 c-3 -10 -5 -4 -5 12 0
17 2 24 5 18 2 -7 2 -21 0 -30z m421 20 c-10 -2 -26 -2 -35 0 -10 3 -2 5 17 5
19 0 27 -2 18 -5z m175 0 c-18 -2 -48 -2 -65 0 -18 2 -4 4 32 4 36 0 50 -2 33
-4z m273 -6 c3 -3 -45 -4 -106 -2 -61 1 -113 4 -116 7 -3 3 45 4 106 3 61 -1
113 -5 116 -8z m47 -4 c-7 -2 -19 -2 -25 0 -7 3 -2 5 12 5 14 0 19 -2 13 -5z
m-929 -45 c8 -42 15 -131 10 -125 -3 3 -9 29 -13 59 -5 29 -12 61 -16 71 -4
10 -3 17 4 17 6 0 13 -10 15 -22z m356 7 c10 -12 10 -15 -4 -15 -9 0 -16 7
-16 15 0 8 2 15 4 15 2 0 9 -7 16 -15z m38 -22 c-25 -6 -22 -21 4 -25 12 -2
23 -8 25 -13 5 -17 -37 -16 -44 1 -3 8 -14 14 -24 14 -27 0 -24 18 4 23 30 6
57 6 35 0z m82 -12 c0 -5 -9 -7 -20 -4 -11 3 -20 7 -20 9 0 2 9 4 20 4 11 0
20 -4 20 -9z m65 -1 c3 -5 27 -10 53 -11 26 0 67 -4 92 -9 40 -7 36 -8 -33 -7
-44 1 -79 -2 -81 -8 -1 -5 -12 -2 -23 8 -11 9 -27 17 -36 17 -9 0 -17 5 -17
10 0 6 9 10 19 10 11 0 23 -4 26 -10z m781 -42 c-3 -29 -7 -118 -7 -198 l-2
-145 -9 100 c-12 122 -13 142 -10 228 2 55 5 67 18 67 14 0 16 -8 10 -52z
m-226 7 c-7 -8 -9 -19 -5 -25 3 -6 -3 -10 -14 -10 -12 0 -21 5 -21 10 0 6 4
10 9 10 5 0 11 9 14 21 3 12 10 18 17 14 8 -5 8 -10 0 -20z m-200 5 c0 -5 -18
-10 -40 -10 -22 0 -40 5 -40 10 0 6 18 10 40 10 22 0 40 -4 40 -10z m-913 -32
c-3 -7 -5 -2 -5 12 0 14 2 19 5 13 2 -7 2 -19 0 -25z m380 16 c-3 -3 -12 -4
-19 -1 -8 3 -5 6 6 6 11 1 17 -2 13 -5z m113 -14 c0 -5 -9 -10 -20 -10 -11 0
-20 5 -20 10 0 6 9 10 20 10 11 0 20 -4 20 -10z m184 2 c2 -4 -12 -6 -32 -4
-56 5 -62 10 -15 11 23 1 44 -3 47 -7z m476 -2 c0 -5 -5 -10 -11 -10 -5 0 -7
5 -4 10 3 6 8 10 11 10 2 0 4 -4 4 -10z m-727 -7 c-7 -2 -19 -2 -25 0 -7 3 -2
5 12 5 14 0 19 -2 13 -5z m165 -159 c2 -138 0 -161 -13 -161 -13 0 -15 23 -15
158 0 116 -3 159 -12 163 -7 3 -2 4 12 3 l25 -2 3 -161z m593 31 l-9 -120 1
127 c1 70 5 123 9 119 5 -4 4 -61 -1 -126z m209 44 c0 -49 -3 -88 -7 -86 -8 5
-5 177 3 177 2 0 4 -41 4 -91z m-1396 -26 c-1 -49 -6 -87 -11 -86 -5 1 -9 -29
-8 -68 0 -54 -3 -69 -14 -69 -12 0 -12 -3 -3 -12 9 -9 27 -9 75 -2 44 8 88 8
152 0 l90 -11 -170 0 c-146 0 -169 2 -166 15 2 8 6 44 8 80 2 36 8 81 13 100
4 19 11 59 15 88 11 80 20 62 19 -35z m49 62 c-3 -9 -8 -14 -10 -11 -3 3 -2 9
2 15 9 16 15 13 8 -4z m2586 -65 l0 -25 -12 25 c-6 14 -16 28 -21 31 -4 4 -5
12 -1 18 10 17 34 -18 34 -49z m-2610 18 c-9 -16 -14 -19 -17 -9 -2 7 2 17 9
22 20 13 21 11 8 -13z m2592 -48 c9 -6 0 -60 -10 -60 -4 0 -8 21 -8 48 0 26 3
40 5 32 3 -8 8 -17 13 -20z m42 -52 c-3 -77 -6 -83 -62 -93 -44 -7 -184 -49
-271 -81 -36 -13 -117 -40 -180 -60 -63 -20 -160 -51 -214 -70 -55 -19 -106
-34 -114 -34 -8 0 -28 -6 -45 -14 -18 -8 -50 -20 -71 -27 -37 -11 -41 -10 -58
11 -15 19 -18 41 -18 139 0 125 -6 164 -24 158 -7 -3 -11 -50 -10 -150 1 -108
-2 -147 -10 -147 -9 0 -12 27 -12 89 1 72 -2 87 -12 79 -10 -9 -11 -6 -2 17 6
15 7 43 4 63 -5 25 -4 33 5 28 7 -4 11 0 11 13 0 10 -6 21 -12 24 -7 2 3 5 24
5 41 0 48 -12 48 -91 0 -27 5 -57 10 -67 7 -12 7 -39 2 -73 -6 -40 -5 -59 4
-72 12 -16 15 -16 45 -1 18 9 45 16 61 16 16 0 35 6 42 13 12 10 10 14 -7 23
-18 10 -15 11 22 10 23 0 37 -2 31 -4 -5 -2 -10 -8 -10 -13 0 -5 11 -4 25 3
13 6 22 15 19 19 -3 5 12 17 33 26 21 9 45 23 53 30 10 7 21 9 30 3 11 -7 8
-10 -13 -15 -41 -11 -32 -25 10 -18 22 4 45 16 56 30 10 13 26 23 35 22 14 0
13 -2 -3 -10 -16 -7 -14 -8 10 -4 17 3 53 10 80 15 28 5 60 15 73 22 23 12 23
12 -15 25 l-38 12 38 -5 c22 -3 37 -1 37 5 0 6 11 13 25 17 14 3 25 12 25 20
0 8 9 14 20 14 27 0 25 26 -2 35 l-23 7 25 7 c20 6 26 3 28 -13 2 -12 8 -27
14 -33 6 -7 8 -19 5 -26 -3 -9 2 -13 16 -12 13 1 24 12 30 28 5 15 13 27 19
27 6 0 6 -6 -2 -15 -10 -12 -10 -15 1 -14 29 1 128 25 135 32 4 4 18 7 30 7
13 0 26 5 29 10 3 6 2 10 -2 10 -5 0 -9 18 -9 40 -1 22 2 40 7 40 5 0 9 9 9
20 0 11 4 20 8 20 5 0 7 -32 5 -72z m-2599 -20 l-7 -33 -9 30 c-10 36 -2 63
13 48 7 -7 8 -24 3 -45z m2457 -17 c-16 -10 -74 7 -66 20 3 4 12 6 19 3 8 -3
17 0 21 6 5 9 12 7 24 -4 13 -14 14 -18 2 -25z m-127 21 c2 -4 1 -14 -5 -22
-7 -12 -9 -12 -9 3 0 11 -4 15 -12 11 -7 -4 -8 -3 -4 4 8 14 23 16 30 4z
m-2357 -44 c-3 -7 -5 -2 -5 12 0 14 2 19 5 13 2 -7 2 -19 0 -25z m2583 19 c0
-7 -9 -13 -20 -14 -16 -1 -17 1 -7 12 15 18 27 19 27 2z m-3311 -16 c15 -10
10 -12 -61 -26 -10 -2 -18 1 -18 5 0 23 54 37 79 21z m3111 -1 c0 -5 -4 -10
-10 -10 -5 0 -10 5 -10 10 0 6 5 10 10 10 6 0 10 -4 10 -10z m123 -10 c11 0
18 -2 15 -5 -3 -3 -25 -2 -49 2 -38 6 -41 8 -19 13 14 3 27 3 28 -2 2 -4 13
-8 25 -8z m-233 -9 c0 -5 -7 -11 -15 -15 -9 -3 -15 0 -15 9 0 8 7 15 15 15 8
0 15 -4 15 -9z m-2255 -61 c-11 -5 -27 -9 -35 -9 -9 0 -8 4 5 9 11 5 27 9 35
9 9 0 8 -4 -5 -9z m193 3 c-15 -2 -42 -2 -60 0 -18 2 -6 4 27 4 33 0 48 -2 33
-4z m410 -11 c2 -7 -6 -12 -17 -12 -12 0 -21 6 -21 14 0 17 32 15 38 -2z m839
2 c7 -18 -17 -38 -31 -24 -11 11 -1 40 14 40 6 0 13 -7 17 -16z m43 0 c0 -8
-4 -12 -10 -9 -5 3 -10 10 -10 16 0 5 5 9 10 9 6 0 10 -7 10 -16z m-1180 -4
c0 -5 -9 -10 -20 -10 -11 0 -20 5 -20 10 0 6 9 10 20 10 11 0 20 -4 20 -10z
m1730 -25 c24 -8 23 -9 -14 -16 -22 -3 -51 -3 -65 1 -23 7 -24 8 -4 9 12 1 24
5 27 10 7 10 18 9 56 -4z m-1932 -2 c-16 -2 -40 -2 -55 0 -16 2 -3 4 27 4 30
0 43 -2 28 -4z m1362 -13 c0 -11 -7 -20 -15 -20 -15 0 -21 21 -8 33 12 13 23
7 23 -13z m710 10 c0 -5 -7 -10 -16 -10 -8 0 -12 5 -9 10 3 6 10 10 16 10 5 0
9 -4 9 -10z m-1869 -17 c13 -15 11 -15 -16 -8 -16 4 -56 8 -87 8 -32 0 -58 4
-58 9 0 4 33 8 74 8 56 0 77 -4 87 -17z m84 -12 c-8 -14 -36 -14 -55 0 -12 8
-9 10 13 6 15 -2 30 0 33 5 3 5 8 7 11 4 3 -2 2 -9 -2 -15z m90 -11 c4 -7 -3
-8 -22 -4 -38 9 -42 14 -10 14 14 0 29 -5 32 -10z m133 -2 c-2 -7 11 -15 27
-19 27 -6 26 -7 -12 -8 -24 0 -43 4 -43 9 0 7 -14 8 -37 4 -49 -9 -39 3 13 15
54 12 54 12 52 -1z m222 -2 c0 -18 22 -26 71 -26 28 0 39 -4 39 -15 0 -8 -5
-15 -11 -15 -20 0 -104 21 -122 31 -9 5 -45 10 -79 11 -41 1 -55 4 -42 10 12
5 2 6 -26 3 -32 -4 -39 -2 -25 4 11 5 59 10 108 10 68 1 87 -2 87 -13z m110 4
c0 -5 -19 -10 -42 -9 -33 0 -38 2 -23 9 28 12 65 12 65 0z m710 -23 c0 -18 5
-38 10 -43 7 -7 0 -11 -22 -11 -18 0 -27 2 -20 5 7 2 12 20 12 43 0 21 5 39
10 39 6 0 10 -15 10 -33z m247 27 c-3 -3 -12 -4 -19 -1 -8 3 -5 6 6 6 11 1 17
-2 13 -5z m-1149 -41 c-10 -2 -26 -2 -35 0 -10 3 -2 5 17 5 19 0 27 -2 18 -5z
m307 -33 c3 -5 -1 -10 -9 -10 -9 0 -16 5 -16 10 0 6 4 10 9 10 6 0 13 -4 16
-10z m95 -4 c0 -2 -13 -6 -30 -8 -16 -3 -30 -1 -30 4 0 4 14 8 30 8 17 0 30
-2 30 -4z m30 -6 c0 -5 -5 -10 -11 -10 -5 0 -7 5 -4 10 3 6 8 10 11 10 2 0 4
-4 4 -10z m130 6 c0 -3 -4 -8 -10 -11 -5 -3 -10 -1 -10 4 0 6 5 11 10 11 6 0
10 -2 10 -4z m200 -12 c0 -14 -3 -14 -15 -4 -8 7 -15 14 -15 16 0 2 7 4 15 4
8 0 15 -7 15 -16z m-173 -16 c-3 -8 -6 -5 -6 6 -1 11 2 17 5 13 3 -3 4 -12 1
-19z m323 2 c0 -5 -5 -10 -11 -10 -5 0 -7 5 -4 10 3 6 8 10 11 10 2 0 4 -4 4
-10z m70 0 c-8 -5 -22 -10 -30 -10 -13 0 -13 1 0 10 8 5 22 10 30 10 13 0 13
-1 0 -10z m-108 -22 c-7 -7 -12 -8 -12 -2 0 14 12 26 19 19 2 -3 -1 -11 -7
-17z m-285 -20 c11 -18 83 -17 83 0 0 7 5 10 10 7 6 -4 8 -11 5 -16 -4 -5 9
-9 27 -8 18 0 27 3 21 6 -18 7 -16 23 2 23 8 0 15 -7 15 -15 0 -8 8 -15 19
-15 10 0 25 -7 32 -16 12 -15 11 -16 -7 -10 -11 3 -60 8 -108 11 -85 5 -126
16 -126 35 0 14 18 12 27 -2z"/>
<path d="M4918 1453 c-10 -3 -15 -10 -11 -19 3 -9 9 -12 12 -7 3 5 17 14 31
20 21 10 22 12 5 11 -11 0 -28 -2 -37 -5z"/>
<path d="M4510 1309 c0 -5 11 -9 25 -9 14 0 25 2 25 4 0 2 -11 6 -25 8 -14 3
-25 1 -25 -3z"/>
<path d="M4071 1434 c0 -11 3 -14 6 -6 3 7 2 16 -1 19 -3 4 -6 -2 -5 -13z"/>
<path d="M3408 1363 c6 -2 18 -2 25 0 6 3 1 5 -13 5 -14 0 -19 -2 -12 -5z"/>
<path d="M3683 5133 c-18 -72 5 -147 27 -88 8 20 7 31 -1 42 -9 10 -9 20 0 39
14 32 14 34 -4 34 -8 0 -18 -12 -22 -27z"/>
<path d="M3271 5053 c-99 -51 -126 -80 -66 -70 20 3 68 21 108 39 39 18 79 31
89 30 28 -5 21 16 -11 33 -29 14 -33 13 -120 -32z"/>
<path d="M2997 5013 c-16 -15 -4 -31 32 -41 81 -25 99 -5 25 28 -53 23 -49 22
-57 13z"/>
<path d="M3285 4950 c-8 -26 12 -62 33 -58 21 4 28 44 12 64 -17 20 -38 18
-45 -6z"/>
<path d="M3093 4929 c-29 -10 -30 -42 -3 -69 15 -15 20 -33 20 -78 0 -65 18
-92 59 -92 29 0 23 24 -7 28 -26 4 -25 2 -22 113 2 94 -7 113 -47 98z"/>
<path d="M3217 4733 c-12 -11 -8 -23 8 -23 8 0 15 7 15 15 0 16 -12 20 -23 8z"/>
<path d="M3323 4665 c-12 -9 -42 -16 -67 -17 -61 -3 -64 -28 -3 -28 44 0 108
26 115 48 5 17 -19 15 -45 -3z"/>
<path d="M4883 3995 c0 -22 4 -25 38 -25 23 0 39 -5 39 -11 0 -11 34 -10 175
6 22 3 34 2 27 -1 -6 -3 -10 -9 -7 -14 3 -5 -3 -11 -12 -14 -21 -7 -48 -61
-38 -76 3 -5 1 -10 -5 -10 -19 0 -23 30 -6 49 9 10 16 23 16 29 0 7 7 12 15
12 8 0 15 5 15 10 0 6 -11 8 -27 3 -16 -4 -74 -7 -130 -7 l-101 0 -5 -91 c-3
-49 -8 -106 -11 -125 -5 -26 -4 -30 3 -15 14 30 13 6 -4 -58 -10 -40 -13 -90
-10 -170 2 -65 1 -100 -4 -82 -7 25 -8 21 -8 -25 0 -30 -3 -66 -7 -80 -5 -19
-5 -21 3 -10 8 11 10 -5 9 -59 -1 -67 -2 -72 -16 -55 -13 17 -14 16 -9 -18 4
-27 1 -42 -14 -59 -10 -12 -19 -22 -19 -23 0 -1 20 -1 45 -1 29 0 45 4 45 13
0 20 37 14 43 -8 4 -16 14 -20 49 -20 244 -3 288 -6 293 -19 4 -11 -7 -13 -67
-7 -40 3 -255 9 -478 12 -222 3 -408 8 -412 10 -5 3 -8 0 -8 -6 0 -7 -6 -10
-12 -7 -20 7 -65 -20 -71 -43 -6 -24 24 -28 43 -5 11 13 55 15 284 15 149 0
378 -5 509 -11 130 -7 240 -9 244 -5 4 4 2 15 -4 24 -12 21 -7 58 35 227 102
412 124 583 87 664 -10 22 -26 43 -36 46 -11 4 -19 10 -19 14 0 25 -184 50
-371 51 l-106 0 0 -25z m332 -5 c46 -5 24 -7 -97 -9 -100 0 -158 3 -158 9 0
12 163 12 255 0z m119 -23 c26 -14 25 -27 -1 -27 -8 0 -11 5 -8 10 3 6 -1 10
-9 10 -8 0 -18 5 -21 10 -9 14 8 12 39 -3z m-58 -22 c-10 -8 -23 -12 -29 -8
-5 3 -13 -1 -18 -8 -6 -10 -9 -11 -9 -1 0 45 -51 -35 -65 -103 -4 -22 -10 -47
-12 -55 -5 -24 -19 -153 -33 -310 -13 -145 -24 -181 -55 -176 -8 1 -18 6 -22
11 -4 4 -3 6 2 2 6 -3 17 -2 25 4 12 7 12 9 1 9 -10 0 -12 11 -8 48 4 26 11
108 17 182 18 221 52 371 90 395 7 4 38 11 69 15 31 4 58 8 61 8 3 1 -4 -5
-14 -13z m137 -121 c1 -36 -1 -70 -5 -77 -4 -7 -8 20 -8 60 0 50 -4 76 -15 87
-8 8 -15 25 -15 38 0 21 2 20 20 -10 14 -22 21 -54 23 -98z m-363 98 c0 -4
-18 -6 -40 -4 -22 2 -40 6 -40 8 0 2 18 4 40 4 22 0 40 -3 40 -8z m170 -22 c0
-5 7 -10 15 -10 8 0 15 -7 15 -15 0 -8 -7 -15 -15 -15 -8 0 -15 6 -15 13 0 8
-4 7 -10 -3 -5 -8 -10 -11 -10 -6 0 5 -7 3 -15 -4 -13 -10 -12 -6 2 18 18 31
33 41 33 22z m63 -20 c3 -11 2 -20 -3 -20 -4 0 -10 9 -13 20 -3 11 -2 20 3 20
4 0 10 -9 13 -20z m-346 -12 c-3 -8 -6 -5 -6 6 -1 11 2 17 5 13 3 -3 4 -12 1
-19z m123 12 c0 -5 -4 -10 -10 -10 -5 0 -10 5 -10 10 0 6 5 10 10 10 6 0 10
-4 10 -10z m320 -16 c0 -14 -4 -23 -9 -20 -5 3 -7 15 -4 26 7 28 13 25 13 -6z
m-296 -75 c-6 -36 -8 -40 -15 -21 -5 13 -4 32 3 47 16 35 20 25 12 -26z m108
-3 c12 7 -11 -38 -23 -46 -5 -3 -12 -69 -16 -145 -8 -133 -8 -136 -13 -65 -7
86 6 221 22 231 6 4 7 12 3 18 -4 7 -3 24 1 39 l8 27 4 -33 c2 -19 8 -30 14
-26z m-137 14 c-4 -12 -9 -19 -12 -17 -3 3 -2 15 2 27 4 12 9 19 12 17 3 -3 2
-15 -2 -27z m332 -72 c-2 -29 0 -64 5 -77 7 -20 6 -22 -6 -12 -15 13 -28 73
-13 64 5 -3 8 8 7 23 -3 40 -1 54 6 54 4 0 4 -24 1 -52z m-190 0 c-3 -8 -6 -5
-6 6 -1 11 2 17 5 13 3 -3 4 -12 1 -19z m60 -10 c-3 -8 -6 -5 -6 6 -1 11 2 17
5 13 3 -3 4 -12 1 -19z m-191 -36 c-2 -4 -7 -50 -10 -101 -4 -52 -9 -97 -13
-100 -4 -5 1 170 7 244 1 6 5 -1 11 -13 5 -13 7 -27 5 -30z m133 -1 c-1 -13
-2 -13 -6 2 -2 9 -9 17 -14 17 -5 0 -9 5 -9 11 0 8 5 8 15 -1 8 -7 14 -20 14
-29z m208 7 c-3 -8 -6 -5 -6 6 -1 11 2 17 5 13 3 -3 4 -12 1 -19z m-70 -20
c-3 -8 -6 -5 -6 6 -1 11 2 17 5 13 3 -3 4 -12 1 -19z m-160 -20 c-3 -7 -5 -2
-5 12 0 14 2 19 5 13 2 -7 2 -19 0 -25z m-301 -33 c0 -14 -4 -25 -8 -25 -10 0
-10 13 -2 34 9 23 12 20 10 -9z m462 -29 c-2 -38 -18 -39 -18 -2 0 20 7 36 17
36 2 0 3 -15 1 -34z m49 12 c-3 -8 -6 -5 -6 6 -1 11 2 17 5 13 3 -3 4 -12 1
-19z m-148 -38 c1 -13 0 -13 -9 0 -5 8 -9 24 -9 35 l0 20 9 -20 c5 -11 9 -27
9 -35z m128 28 c-3 -8 -6 -5 -6 6 -1 11 2 17 5 13 3 -3 4 -12 1 -19z m8 -68
c-4 -23 -9 -39 -11 -37 -3 2 -2 23 2 46 4 23 9 40 11 37 3 -3 2 -23 -2 -46z
m-185 30 c0 -5 -2 -10 -4 -10 -3 0 -8 5 -11 10 -3 6 -1 10 4 10 6 0 11 -4 11
-10z m-313 -77 c-2 -16 -4 -3 -4 27 0 30 2 43 4 28 2 -16 2 -40 0 -55z m421
32 c1 -21 -3 -33 -8 -30 -6 3 -10 2 -10 -4 0 -5 5 -11 11 -13 8 -3 9 -13 4
-28 l-8 -25 -8 30 c-9 31 -1 105 11 105 4 0 7 -16 8 -35z m-98 -55 c0 -5 -2
-10 -4 -10 -3 0 -8 5 -11 10 -3 6 -1 10 4 10 6 0 11 -4 11 -10z m-250 -39 c0
-23 -16 -36 -25 -21 -9 14 1 40 15 40 5 0 10 -9 10 -19z m204 -13 c9 -12 16
-30 16 -40 0 -10 5 -18 10 -18 6 0 10 10 10 22 0 12 3 19 6 16 8 -9 -7 -78
-17 -78 -5 0 -9 9 -9 20 0 11 -4 20 -10 20 -5 0 -10 -9 -10 -20 0 -11 -4 -20
-10 -20 -5 0 -10 9 -10 20 0 11 5 20 10 20 6 0 10 9 10 20 0 11 -4 20 -10 20
-5 0 -10 -7 -10 -15 0 -8 -4 -15 -8 -15 -4 0 -6 16 -4 35 5 41 15 44 36 13z
m-277 -40 c-3 -8 -6 -5 -6 6 -1 11 2 17 5 13 3 -3 4 -12 1 -19z m163 0 c0 -19
-2 -20 -10 -8 -13 19 -13 30 0 30 6 0 10 -10 10 -22z m281 -18 c5 0 9 -10 9
-21 0 -18 -2 -19 -15 -9 -8 7 -14 27 -14 44 1 23 3 25 6 9 2 -13 9 -23 14 -23z
m16 18 c-3 -8 -6 -5 -6 6 -1 11 2 17 5 13 3 -3 4 -12 1 -19z m-349 -18 c7 -11
10 -20 6 -20 -7 0 -34 27 -34 34 0 13 16 5 28 -14z m-115 -60 l6 -45 -14 35
c-15 39 -20 95 -6 70 5 -8 11 -35 14 -60z m414 38 c-3 -8 -6 -5 -6 6 -1 11 2
17 5 13 3 -3 4 -12 1 -19z m29 -52 c-3 -11 -6 -29 -6 -39 0 -11 -5 -15 -11
-11 -7 4 -9 0 -5 -13 4 -11 2 -31 -3 -44 -7 -20 -8 -18 -6 16 1 22 6 48 10 58
4 9 4 28 1 42 -5 20 -3 23 10 18 10 -4 14 -13 10 -27z m-439 -88 c-3 -7 -5 -2
-5 12 0 14 2 19 5 13 2 -7 2 -19 0 -25z m403 -78 c0 -15 -7 -20 -24 -20 -14 0
-28 -4 -31 -10 -3 -5 -10 -10 -16 -10 -14 0 -11 18 9 39 24 27 62 27 62 1z"/>
<path d="M1877 3713 c-4 -3 -7 -15 -7 -26 0 -19 5 -20 149 -14 114 5 152 3
166 -7 14 -10 15 -15 5 -21 -9 -5 -15 -4 -18 3 -5 15 -52 16 -52 1 0 -7 9 -9
21 -6 14 4 19 1 16 -7 -3 -8 7 -13 32 -14 20 -1 55 -3 78 -5 23 -2 40 0 37 5
-3 4 -15 8 -27 8 -36 0 -67 12 -65 24 2 6 -8 23 -21 39 l-25 27 -141 0 c-78 0
-145 -3 -148 -7z"/>
<path d="M2234 3669 c-12 -21 13 -30 72 -26 l59 3 -62 2 c-38 1 -63 6 -63 13
0 7 14 8 40 4 26 -4 40 -3 40 4 0 14 -77 14 -86 0z"/>
<path d="M2365 3673 c45 -7 63 -43 23 -43 -21 -1 -21 -2 -5 -11 9 -5 17 -19
17 -29 0 -13 5 -18 15 -14 18 7 20 30 3 38 -7 3 0 4 15 1 21 -4 27 -2 21 6 -5
9 -2 10 12 5 15 -6 14 -3 -5 18 -25 27 -43 28 -21 1 16 -19 3 -20 -16 0 -9 8
-12 19 -9 25 4 6 -10 9 -37 9 -34 -2 -37 -3 -13 -6z"/>
<path d="M1620 3658 c0 -10 0 -10 124 -8 78 1 102 -2 116 -15 16 -15 18 -15
16 -1 -1 8 -5 18 -8 22 -9 9 -248 10 -248 2z"/>
<path d="M1892 3648 c6 -17 58 -23 58 -7 0 6 -8 9 -20 6 -11 -3 -20 -1 -20 4
0 5 -5 9 -11 9 -6 0 -9 -6 -7 -12z"/>
<path d="M2080 3650 c0 -5 5 -10 10 -10 6 0 10 5 10 10 0 6 -4 10 -10 10 -5 0
-10 -4 -10 -10z"/>
<path d="M1650 3630 c0 -5 4 -10 9 -10 4 0 44 -36 88 -80 62 -62 84 -79 99
-74 15 5 16 4 8 -6 -9 -9 23 -47 142 -166 84 -85 155 -154 157 -154 2 0 13 19
23 42 10 24 25 50 32 58 7 8 27 35 45 60 18 24 46 51 62 60 17 8 32 18 35 21
3 4 26 3 53 -1 26 -4 47 -3 47 2 0 4 8 8 18 8 12 0 13 -3 5 -8 -8 -5 14 -15
56 -25 72 -17 214 -78 242 -103 12 -10 23 -12 40 -5 20 7 21 10 8 16 -10 4
-15 14 -12 24 4 15 0 18 -24 15 -15 -2 -20 -1 -10 2 9 3 17 10 17 15 0 12 -2
12 -38 -6 -28 -14 -33 -14 -64 3 -19 11 -34 28 -36 40 -2 12 -7 20 -12 17 -5
-3 -7 -12 -3 -21 4 -12 0 -14 -23 -8 -16 4 -34 11 -40 15 -6 5 -13 6 -17 3 -3
-3 -4 1 -3 10 1 9 6 15 12 14 5 -2 8 -6 7 -10 -2 -5 6 -8 17 -8 23 0 26 13 6
29 -17 14 -135 21 -142 9 -7 -11 -72 -10 -79 2 -10 16 -21 12 -46 -15 -13 -13
-30 -25 -36 -25 -7 0 -13 -8 -13 -17 0 -13 -3 -14 -12 -5 -9 9 -9 15 0 24 17
17 15 58 -2 58 -19 0 -26 -22 -19 -63 5 -32 -9 -77 -25 -77 -4 0 -6 20 -4 45
3 35 1 45 -11 45 -12 0 -15 -10 -13 -44 3 -33 0 -43 -10 -39 -7 2 -14 12 -16
21 -3 13 -5 12 -10 -6 -3 -12 -2 -20 3 -16 5 3 9 1 9 -5 0 -10 -44 -44 -71
-53 -20 -8 -50 11 -31 19 6 2 12 11 12 18 0 15 -35 29 -49 20 -6 -3 -43 27
-82 66 -42 42 -64 70 -53 67 14 -4 20 0 20 13 0 14 -4 15 -19 7 -21 -11 -38
-1 -18 11 10 7 10 14 -3 40 -15 29 -25 35 -51 32 -5 0 -21 15 -34 35 -13 19
-34 40 -45 46 -20 11 -20 11 -1 19 13 5 1 8 -37 8 -33 1 -58 -3 -58 -9z m60
-10 c0 -5 7 -10 15 -10 8 0 15 -5 15 -11 0 -14 26 -39 40 -39 6 0 10 -5 8 -12
-6 -16 -28 -23 -28 -8 0 12 -49 63 -77 79 -16 9 -16 10 5 11 12 0 22 -4 22
-10z m113 -115 c10 -14 15 -25 11 -25 -11 0 -44 32 -44 42 0 15 15 8 33 -17z
m714 -131 c-3 -3 -12 -4 -19 -1 -8 3 -5 6 6 6 11 1 17 -2 13 -5z m255 -97 c14
-21 8 -27 -12 -15 -11 7 -20 16 -20 20 0 3 -6 8 -12 11 -7 2 -2 2 12 0 14 -3
28 -10 32 -16z m-732 -8 c0 -5 -4 -9 -10 -9 -5 0 -10 7 -10 16 0 8 5 12 10 9
6 -3 10 -10 10 -16z m150 2 c0 -5 -11 -16 -25 -25 -13 -9 -22 -22 -20 -29 2
-6 -2 -21 -10 -32 -15 -19 -16 -19 -42 8 -15 15 -23 27 -16 27 6 0 16 -7 23
-15 16 -19 26 -19 33 -1 4 10 1 13 -7 10 -8 -3 -17 -1 -21 5 -3 7 2 11 14 11
12 0 21 4 21 9 0 12 29 41 41 41 5 0 9 -4 9 -9z"/>
<path d="M1828 3633 c7 -3 16 -2 19 1 4 3 -2 6 -13 5 -11 0 -14 -3 -6 -6z"/>
<path d="M2006 3628 c5 -7 3 -8 -5 -4 -7 5 -28 5 -48 1 -60 -11 -23 -26 57
-23 70 3 73 4 56 21 -20 19 -72 24 -60 5z"/>
<path d="M2098 3623 c7 -3 16 -2 19 1 4 3 -2 6 -13 5 -11 0 -14 -3 -6 -6z"/>
<path d="M2491 3588 c-1 -31 -16 -45 -25 -23 -7 19 -26 19 -26 0 0 -8 5 -15
11 -15 5 0 8 -4 5 -9 -7 -10 20 -9 30 1 3 4 12 4 20 1 16 -6 19 8 5 23 -5 5
-11 18 -14 29 -4 15 -5 14 -6 -7z"/>
<path d="M1820 3580 c0 -5 5 -10 10 -10 6 0 10 5 10 10 0 6 -4 10 -10 10 -5 0
-10 -4 -10 -10z"/>
<path d="M2215 3549 c-36 -6 -34 -6 22 -8 34 0 64 2 67 7 5 9 -36 10 -89 1z"/>
<path d="M2413 3513 c9 -2 25 -2 35 0 9 3 1 5 -18 5 -19 0 -27 -2 -17 -5z"/>
<path d="M2538 3495 c-6 -30 10 -44 26 -23 6 8 17 17 25 19 10 4 10 7 -3 18
-12 10 -16 11 -16 1 0 -9 -3 -10 -14 -1 -11 9 -15 6 -18 -14z"/>
<path d="M2460 3500 c-24 -8 -24 -8 -2 -9 23 -1 31 -26 10 -34 -8 -4 -7 -6 3
-6 26 -1 41 23 26 41 -8 11 -19 13 -37 8z"/>
<path d="M2590 3467 c-24 -19 -13 -50 15 -43 19 5 22 3 18 -14 -3 -11 -1 -20
5 -20 14 0 23 28 11 36 -7 4 -6 10 1 19 7 9 7 15 1 19 -5 4 -13 0 -18 -8 -6
-11 -13 -12 -23 -6 -13 8 -12 10 3 10 9 0 17 5 17 10 0 13 -11 12 -30 -3z"/>
<path d="M2291 3444 c0 -11 3 -14 6 -6 3 7 2 16 -1 19 -3 4 -6 -2 -5 -13z"/>
<path d="M2317 3444 c3 -7 9 -14 14 -14 14 0 10 17 -5 23 -10 4 -13 1 -9 -9z"/>
<path d="M2080 3414 c0 -33 2 -36 23 -30 12 3 28 6 35 6 18 0 15 17 -8 40 -32
32 -50 26 -50 -16z"/>
<path d="M2385 3440 c-3 -5 1 -10 10 -10 9 0 13 5 10 10 -3 6 -8 10 -10 10 -2
0 -7 -4 -10 -10z"/>
<path d="M2670 3416 c0 -9 5 -16 10 -16 6 0 10 4 10 9 0 6 -4 13 -10 16 -5 3
-10 -1 -10 -9z"/>
<path d="M2685 3390 c-3 -5 1 -10 10 -10 8 0 18 -7 21 -15 4 -8 10 -12 15 -10
4 3 -1 15 -11 25 -23 23 -26 24 -35 10z"/>
<path d="M1976 3366 c3 -9 11 -16 16 -16 13 0 5 23 -10 28 -7 2 -10 -2 -6 -12z"/>
<path d="M2087 3346 c-3 -8 -2 -18 3 -21 13 -8 24 15 12 27 -6 6 -11 4 -15 -6z"/>
<path d="M2675 3350 c3 -5 14 -10 23 -10 15 0 15 2 2 10 -20 13 -33 13 -25 0z"/>
<path d="M2733 3343 c-14 -5 -18 -23 -5 -23 5 0 17 7 28 15 14 11 15 14 4 14
-8 0 -21 -3 -27 -6z"/>
<path d="M2840 3241 c0 -5 5 -13 10 -16 6 -3 10 -2 10 4 0 5 -4 13 -10 16 -5
3 -10 2 -10 -4z"/>
<path d="M2870 3239 c0 -5 5 -7 10 -4 6 3 10 8 10 11 0 2 -4 4 -10 4 -5 0 -10
-5 -10 -11z"/>
<path d="M4831 3234 c0 -11 3 -14 6 -6 3 7 2 16 -1 19 -3 4 -6 -2 -5 -13z"/>
<path d="M2900 3220 c8 -5 20 -10 25 -10 6 0 3 5 -5 10 -8 5 -19 10 -25 10 -5
0 -3 -5 5 -10z"/>
<path d="M4413 3073 c9 -2 25 -2 35 0 9 3 1 5 -18 5 -19 0 -27 -2 -17 -5z"/>
<path d="M4235 3059 c-11 -16 -2 -17 25 -2 24 12 24 13 3 13 -12 0 -25 -5 -28
-11z"/>
<path d="M1751 2504 c-1 -48 2 -61 14 -61 9 0 14 6 10 14 -18 45 -18 46 -5 38
9 -6 11 -4 5 4 -4 7 -11 25 -15 39 -6 21 -8 13 -9 -34z"/>
<path d="M1750 2420 c-9 -6 -10 -10 -3 -10 6 0 15 5 18 10 8 12 4 12 -15 0z"/>
<path d="M2686 2091 c-19 -21 -12 -28 13 -12 7 5 12 14 9 21 -2 7 -10 4 -22
-9z"/>
<path d="M2600 1990 c0 -5 7 -10 15 -10 8 0 15 5 15 10 0 6 -7 10 -15 10 -8 0
-15 -4 -15 -10z"/>
</g>
</svg>
