<?xml version="1.0" standalone="no"?>
<!DOCTYPE svg PUBLIC "-//W3C//DTD SVG 20010904//EN"
 "http://www.w3.org/TR/2001/REC-SVG-20010904/DTD/svg10.dtd">
<svg version="1.0" xmlns="http://www.w3.org/2000/svg"
 width="626.000000pt" height="626.000000pt" viewBox="0 0 626.000000 626.000000"
 preserveAspectRatio="xMidYMid meet">

<g transform="translate(0.000000,626.000000) scale(0.100000,-0.100000)"
fill="#000000" stroke="none">
<path d="M2678 5855 c-14 -8 -36 -32 -49 -52 -12 -21 -35 -51 -50 -66 -44 -44
-48 -103 -13 -182 2 -6 -39 -18 -103 -29 -286 -48 -595 -198 -797 -387 -202
-188 -343 -463 -410 -799 -39 -195 -48 -278 -52 -515 -3 -168 -8 -224 -19
-241 -8 -12 -24 -50 -36 -85 -19 -54 -23 -85 -23 -199 1 -275 73 -522 220
-747 128 -197 310 -392 473 -507 158 -112 380 -207 518 -222 32 -4 90 -19 128
-34 242 -96 446 -131 755 -130 185 0 287 7 428 31 l62 11 0 39 c0 38 1 39 22
28 13 -7 52 -10 104 -7 46 2 85 1 86 -4 2 -5 31 1 66 13 54 18 69 20 107 10
48 -12 124 -15 149 -5 11 4 16 19 16 53 l0 47 78 38 c183 90 384 251 492 395
71 93 203 358 249 498 72 214 75 359 11 489 -48 98 -160 187 -280 222 -57 17
-694 262 -703 271 -4 4 10 45 31 92 38 84 57 127 61 141 7 24 44 114 75 183
20 44 36 88 36 97 0 26 -20 32 -35 12 -13 -17 -14 -16 -15 18 0 50 -19 87 -46
94 -68 17 -94 -38 -94 -202 l0 -115 -60 -79 c-33 -43 -64 -81 -68 -84 -5 -3
-95 -30 -202 -61 -106 -31 -211 -63 -232 -72 l-38 -15 0 -187 c0 -267 14 -411
47 -475 85 -169 343 -397 568 -503 93 -44 91 -41 54 -79 -39 -40 -57 -42 -124
-10 -210 98 -461 330 -554 512 -17 34 -31 65 -31 70 0 19 -17 34 -33 29 -14
-6 -14 -11 -1 -48 33 -94 88 -173 193 -278 58 -58 122 -117 141 -132 93 -70
132 -97 225 -153 86 -52 100 -64 98 -85 -3 -29 -63 -84 -109 -99 -30 -10 -40
-9 -77 13 -78 47 -179 125 -281 220 -158 146 -258 287 -317 444 -31 82 -33 84
-63 81 -29 -3 -31 -5 -28 -38 5 -58 22 -112 58 -183 76 -153 179 -258 457
-467 69 -52 126 -100 127 -106 0 -14 -118 -144 -132 -144 -6 0 -49 35 -97 78
-47 43 -126 111 -175 152 -49 40 -128 112 -176 160 -136 136 -197 274 -217
488 -5 57 -8 62 -29 62 -20 0 -24 -5 -24 -28 0 -57 21 -200 41 -272 40 -148
94 -214 437 -530 72 -67 132 -126 132 -131 0 -12 -50 -44 -89 -57 -19 -7 -59
-12 -89 -12 -53 0 -56 1 -171 92 -254 201 -388 368 -446 559 -34 111 -38 305
-10 404 5 17 -2 25 -44 44 l-50 24 1 143 c2 144 2 144 25 144 89 0 306 206
418 398 11 17 27 32 37 32 9 0 41 5 69 11 43 9 63 21 106 65 55 54 68 95 41
122 -18 18 -84 14 -128 -7 l-39 -19 15 23 c13 20 13 23 0 28 -23 9 -83 -37
-174 -134 -56 -60 -120 -113 -197 -165 l-113 -76 -91 -6 c-65 -3 -91 -1 -91 7
0 10 69 113 100 148 8 9 4 14 -12 17 -30 7 -105 15 -140 15 l-26 1 13 45 c8
25 19 91 25 147 16 149 35 232 67 290 34 62 53 75 148 100 l75 19 42 -29 c24
-16 61 -38 83 -49 80 -41 76 -42 140 52 32 47 61 85 65 85 3 0 14 16 23 35 9
19 24 35 32 35 9 0 21 11 27 25 6 14 17 25 24 25 8 0 21 12 31 26 l17 27 141
-6 c175 -7 306 -38 437 -105 4 -2 1 14 -8 35 -69 167 -145 290 -259 418 -70
78 -76 88 -70 117 4 17 7 71 7 120 0 75 2 89 14 84 23 -9 77 18 107 53 59 71
60 157 2 210 -19 17 -35 36 -35 41 0 5 -14 25 -31 44 -49 56 -121 60 -193 11
-34 -23 -38 -23 -70 -10 -20 8 -50 15 -68 15 -18 0 -48 4 -67 10 -115 33 -263
30 -332 -6 -27 -13 -31 -13 -71 13 -52 32 -130 41 -170 18z m727 -895 c3 -5
-11 -27 -31 -49 -58 -65 -129 -68 -191 -6 -59 59 -50 65 91 65 69 0 127 -4
131 -10z"/>
<path d="M4448 4637 c-158 -34 -290 -65 -294 -69 -9 -10 13 -6 323 54 183 36
273 57 273 66 0 15 32 21 -302 -51z"/>
<path d="M3418 4603 c7 -3 16 -2 19 1 4 3 -2 6 -13 5 -11 0 -14 -3 -6 -6z"/>
<path d="M4048 4543 c7 -3 16 -2 19 1 4 3 -2 6 -13 5 -11 0 -14 -3 -6 -6z"/>
<path d="M4102 1425 c-22 -48 -14 -77 38 -138 98 -115 202 -187 268 -187 36 0
48 17 38 53 -3 12 -47 79 -97 149 -90 126 -91 126 -120 116 -33 -11 -76 -4
-100 18 -14 12 -17 11 -27 -11z"/>
<path d="M3704 1413 c-3 -16 -7 -32 -9 -38 -10 -39 155 -202 250 -247 69 -32
101 -33 119 -6 14 24 -4 57 -107 188 l-83 105 -52 -3 c-36 -3 -60 1 -77 12
-32 21 -34 21 -41 -11z"/>
</g>
</svg>
